PathFileType	4	(X/Y/Z)	C:/Users/beibeiliu/ov580/test_trc/User1\sequence.28_training_dense_left.trc
DataRate	CameraRate	NumFrames	NumMarkers	Units	OrigDataRate	OrigDataStartFrame	OrigNumFrames
120	120	12	19	mm	120	34	67
Frame#	Time	ThumbCMC			ThumbMCP			ThumbIP			ThumbTip			IndexMCP			IndexPIP			IndexTip			MiddleMCP			MiddlePIP			MiddleTip			RingMCP			RingPIP			RingTip			PinkyMCP			PinkyPIP			PinkyTip			BackHand1			BackHand2			BackHand3	
		X0	Y0	Z0	X1	Y1	Z1	X2	Y2	Z2	X3	Y3	Z3	X4	Y4	Z4	X5	Y5	Z5	X6	Y6	Z6	X7	Y7	Z7	X8	Y8	Z8	X9	Y9	Z9	X10	Y10	Z10	X11	Y11	Z11	X12	Y12	Z12	X13	Y13	Z13	X14	Y14	Z14	X15	Y15	Z15	X16	Y16	Z16	X17	Y17	Z17	X18	Y18	Z18	
33	0.275	-191.45	61.6434	95.4969	-166.481	79.2686	66.6184	-140.355	65.2847	48.5383	-121.258	47.303	52.1707	-167.336	32.1698	17.436	-149.753	32.6979	-3.30656	-129.549	33.8478	-22.4333	-152.006	13.6087	14.1254	-134.898	17.0295	-4.19976	-115.68	21.7669	-24.3275	-126.498	14.7553	38.4966	-109.915	35.2104	55.0102	-130.913	37.0419	83.6032	-115.376	2.07452	60.2611	-113.498	25.9003	75.1296	-135.621	29.8288	97.6684	-174.771	-7.93857	76.2086	-185.322	-6.38575	109.212	-198.014	17.2674	85.2087	
34	0.283333	-208.453	57.9168	93.7847	-191.251	79.4746	60.9449	-170.889	67.8641	40.344	-148.573	47.2464	37.8995	-203.262	27.5537	14.3386	-187.891	26.6292	-13.6855	-174.908	25.6824	-31.6672	-186.055	8.04371	6.98673	-172.216	11.1158	-16.7275	-157.352	16.3462	-43.3206	-153.407	11.556	26.9421	-137.554	41.2881	38.0525	-150.205	41.105	70.8083	-141.406	0.259204	47.4097	-133.317	30.1311	58.1705	-153.471	33.7208	83.0701	-190.731	-9.33805	75.334	-193.781	-6.44434	113.55	-213.126	13.6622	87.4694	
35	0.291667	-220.331	58.959	92.7896	-208.152	72.3748	53.9745	-193.501	60.9357	32.6284	-172.928	39.9235	26.4471	-235.605	22.4573	13.5265	-228.679	21.5654	-16.4928	-216.956	17.9051	-36.4617	-217.98	-2.15863	6.15178	-213.223	2.63054	-20.5967	-205.18	3.97419	-48.9081	-182.161	2.95654	18.9622	-161.893	31.8083	24.9857	-168.208	37.4715	55.728	-165.659	-4.35833	33.99	-155.971	22.5598	44.4278	-166.465	29.242	71.2105	-211.144	-15.3242	72.9633	-208.269	-10.1683	110.798	-228.97	14.6774	90.4982	
36	0.3	-223.763	60.259	90.251	-211.987	68.8633	51.5286	-202.872	56.2471	27.8291	-186.291	30.3949	13.8821	-252.782	23.8603	15.4527	-251.289	20.0033	-9.8986	-242.164	14.9945	-36.8907	-246.864	0.62855	10.0927	-245.392	2.23512	-17.2014	-237.05	-3.10479	-47.211	-208.57	-4.68206	16.9172	-182.521	16.3826	14.8997	-183.401	28.4768	50.8942	-191.721	-12.2637	30.3668	-176.623	9.63572	36.713	-181.988	20.3849	67.065	-230.155	-15.2136	75.6217	-226.119	-9.06339	108.899	-242.232	18.7941	90.523	
37	0.308333	-212.01	62.0176	88.618	-198.193	68.2306	50.6636	-193.661	54.984	27.4606	-188.677	26.1459	11.5302	-251.675	43.7675	11.0678	-251.072	41.0485	-14.2171	-244.39	36.9172	-40.0336	-253.832	18.4104	10.5058	-252.168	18.7332	-19.2803	-246.769	13.5107	-48.4252	-221.421	-0.594132	14.5835	-187.819	13.5752	14.9754	-185.794	17.0503	50.8199	-212.214	-17.3916	30.36	-184.752	-1.703	34.9425	-188.718	15.7018	61.0307	-245.355	2.35131	75.2992	-238.92	-2.46366	108.373	-245.678	37.0044	88.3818	
38	0.316667	-189.149	56.3398	92.691	-166.916	58.7179	55.7866	-171.477	46.2222	27.5751	-181.246	20.732	16.8224	-224.678	67.7261	16.5988	-222.262	67.8549	-13.1066	-221.117	57.1048	-38.5839	-238.529	50.699	9.03379	-236.115	47.2647	-20.9908	-232.625	41.6946	-52.9259	-220.304	16.8709	11.6063	-188.076	7.03247	14.2248	-184.63	8.68722	48.1311	-220.476	-5.04882	26.955	-192.642	-8.36372	34.7756	-192.208	5.54215	68.4489	-246.349	20.9175	71.7055	-241.842	19.6749	105.396	-229.79	53.9694	90.3876	
39	0.325	-167.066	36.2091	98.1277	-147.098	29.6657	65.2394	-155.513	22.2499	32.2405	-178.727	4.80044	17.5653	-187.468	67.2544	16.9213	-185.28	66.9476	-4.77785	-183.93	59.7677	-35.1323	-211.399	57.9513	8.97047	-205.407	56.9336	-19.2085	-203.239	51.5264	-45.5963	-209.357	22.6398	14.1647	-186.984	-3.52163	17.0207	-186.272	-5.62603	52.2903	-220.207	0.00195342	26.3283	-197.665	-14.3214	36.8927	-194.798	-3.99336	68.5801	-231.326	38.6123	73.7728	-232.979	27.4727	106.328	-201.754	52.7786	96.2655	
40	0.333333	-145.786	16.8904	104.449	-130.965	5.42481	70.7376	-138.779	-0.384951	40.5086	-163.531	-12.1834	23.4478	-156.796	49.4247	21.3928	-150.73	45.5443	-2.11577	-152.331	36.885	-27.9426	-179.8	45.7612	12.6904	-172.849	41.4892	-13.3139	-164.104	33.8549	-42.3941	-193.59	12.0922	17.0151	-177.325	-17.6423	20.3745	-176.594	-16.982	57.2583	-208.906	-0.439966	30.2317	-193.325	-24.9605	40.318	-184.257	-15.2653	71.5751	-213.989	36.0755	71.764	-217.055	28.2576	108.797	-182.861	42.9394	98.8487	
41	0.341667	-137.504	14.3431	113.485	-118.707	-3.1998	85.989	-122.869	-13.1957	50.8284	-147.081	-24.1994	36.979	-135.002	32.2104	28.5272	-128.132	24.2132	6.29509	-125.945	10.0429	-18.2076	-158.077	25.54	13.2675	-146.472	16.2799	-9.18098	-139.784	1.41454	-35.3448	-175.81	-4.40185	21.4573	-157.154	-31.6192	31.3471	-159.945	-26.6973	65.5435	-193.194	-19.7141	34.7603	-175.185	-36.9355	52.2214	-173.747	-22.1475	83.9547	-198.976	26.8022	71.7934	-205.271	24.476	107.273	-170.776	37.2489	100.833	
42	0.35	-141.816	33.152	111.293	-110.57	22.215	90.0769	-114.669	2.95167	62.0886	-125.314	-18.2131	51.5597	-129.727	34.0121	28.5319	-114.923	19.484	8.10166	-101.735	2.983	-11.1849	-144.675	12.5954	14.8226	-128.66	1.09381	-2.45592	-106.819	-12.5976	-21.9364	-154.697	-16.5483	30.0206	-132.97	-35.3762	49.9287	-141.734	-20.9078	78.6531	-167.605	-33.9139	46.1931	-146.981	-37.2151	68.2973	-154.151	-15.5989	91.9739	-195.883	14.075	70.1128	-207.124	15.6746	103.123	-178.423	39.2931	93.828	
43	0.358333	-165.315	57.1213	99.7918	-133.436	56.7375	78.7357	-118.925	37.5999	61.0699	-114.488	5.23589	55.2876	-142.714	33.2813	18.3154	-123.411	32.424	4.82627	-102.276	20.1747	-7.59295	-144.969	8.8874	16.3056	-118.003	8.60019	-0.434416	-93.6907	0.245758	-11.6181	-132.761	-11.0804	36.264	-109.834	-8.40608	57.36	-131.462	0.773157	85.1738	-137.236	-25.6218	56.4805	-122.717	-14.8842	78.6276	-142.294	3.09908	95.7379	-191.024	-1.08885	65.3339	-207.683	-1.24938	99.5982	-195.345	35.5172	82.3669	
44	0.366667	-193.78	55.7432	89.1758	-164.472	73.6748	62.6853	-139.894	55.8646	44.6191	-125.934	32.5599	50.0068	-165.281	34.1221	9.89977	-145.59	34.6856	-5.84492	-118.17	33.0924	-19.7274	-154.741	11.5715	11.8705	-131.249	14.7344	-3.55637	-104.253	19.9092	-20.9036	-130.068	2.97597	35.3438	-112.465	21.3742	52.848	-135.614	24.5755	81.0209	-131.412	-10.2533	56.9927	-120.592	13.3634	77.4311	-150.181	20.6618	91.2108	-186.773	-10.5266	69.5375	-202.802	-6.27414	100.185	-209.254	22.2821	73.1406	
